<mxfile host="65bd71144e">
    <diagram id="PJhBvZbjIUu8iOUgB9s-" name="ページ1">
        <mxGraphModel dx="1851" dy="1321" grid="1" gridSize="10" guides="1" tooltips="1" connect="1" arrows="1" fold="1" page="1" pageScale="1" pageWidth="827" pageHeight="1169" math="0" shadow="0">
            <root>
                <mxCell id="0"/>
                <mxCell id="1" parent="0"/>
                <mxCell id="42" value="Vertical Container" style="swimlane;whiteSpace=wrap;html=1;swimlaneLine=1;startSize=20;" vertex="1" parent="1">
                    <mxGeometry x="40" y="40" width="760" height="840" as="geometry"/>
                </mxCell>
                <mxCell id="47" value="Vertical Container" style="swimlane;whiteSpace=wrap;html=1;" vertex="1" parent="42">
                    <mxGeometry y="20" width="320" height="820" as="geometry"/>
                </mxCell>
                <mxCell id="48" value="Vertical Container" style="swimlane;whiteSpace=wrap;html=1;" vertex="1" parent="42">
                    <mxGeometry x="320" y="20" width="440" height="820" as="geometry"/>
                </mxCell>
            </root>
        </mxGraphModel>
    </diagram>
</mxfile>